<svg xmlns="http://www.w3.org/2000/svg" width="160" height="30" viewBox="0 0 160 30"><path fill="#517890" d="M24.8 7.8c-.2.5.2.8.4 1 .2.2 1.1.7 1.5 1.1.3.4.7 4 .6 7-.1 2-2.5-2.8-3.3-3.5-.8-.7-2.1-4.1-2.1-4.1-1.4-.8-3.3-.6-5.4-.2-2.3.4-4.5.3-4.8.2-.1 0-.3-.1-.3-.2-.1-.5 1.3-1.1 2.1-1.4-1.8-1.7-1.1-4.4-2.1-6.4-.2-.4-.1-1.7.3-1.1.7 1.1.7.8 1.1 1.2l.4.4c.2.2 2.7 2.9 3.6 4.7.2.4 1.1.5 2.3-.2.6-.3 1.8-1.1 2.3-.9.3.1.4.2.6.2.1.1.6.2.9.2.1 0 .1 0 .1.1 0 0-.1 0-.1.1-1.2.2-2-.1-3.2.7-.7.2.9.4 1.3.1 1-.9 3.1 0 5.9-.2 1.1-.1 1.3-.6 2-.6.3 0 .5.1.7.2.1 0 .6.2.9.2.1 0 .1 0 .1.1 0 0-.1 0-.1.1-.9.3-1.8.4-2.8.4-1 0-2.7.3-2.9.8M9.7 14.5l1 .4c-.2.1-.8.1-1.1.1-1.1 0-2.9.1-2.8.8.1.6.6.8 1.2 1.5.4.5.9 3.5.5 6.6v.1c0 .1-.1.1-.2.1-.3 0-.6-.3-1.5-1.6-1.1-1.6-3-4.3-3.3-5.6-.1-.7-1.5.2-2.6.5-.3.1-.6 0-.8-.2-.2-.5 0-1.1.3-1.6 1.4-2.3 4.5-1.7 5.4-1.5.5.1 1.3.4 1.7.5 1 .3 1.7-.6 2.2-.1m11-1.3c.3.1.7.1.6.2-.1.1-.7.1-.9.2-1 .1-2.8-.1-3.3.4-.4.4 0 .8.1 1.1.2.6.1 2.5-.6 4.8-.1.3-.2.3-.2.3-.1 0-.1-.1-.1-.1-.7-1.6-1.6-3.5-2.2-4.8-.4-.8-.9-.5-.9-.5-.2.8-1.7 2.6-1.7 2.3.1-.8.5-2.3-.2-2.2-.3 0-.5-.5-.2-.9 1.7-2.8 6.4-1 6.7-.9.7.2 2-.3 2.5-.3.2.2.1.3.4.4"/><path d="M44.7 13.9c1.9-.7 2.9-2.4 2.9-4.6 0-3.7-2.1-5.5-6.7-5.5h-5.4V25h5.6c5 0 7.5-2 7.5-5.9 0-3-1.8-4.6-3.9-5.2zm-7.8-8.8h4c3.8 0 5.4 1.2 5.4 4.2 0 2.7-1.6 4.1-5 4.1H37V5.1zM41 23.7h-4.1v-9h4.3c3.9 0 6.1 1.6 6.1 4.4 0 3.2-1.9 4.6-6.3 4.6zm32.6-6.5c0 6.2-5 6.7-6.5 6.7s-6.5-.5-6.5-6.7V3.8h-1.4v13.5c0 5 2.9 7.9 7.9 7.9s7.9-3 7.9-7.9V3.8h-1.4v13.4zm18.6 5l-.9-3.8c-.4-1.8-1.4-3-2.8-3.5 1.9-.6 3.6-2.2 3.6-5.2 0-3.9-2.3-5.9-6.9-5.9h-6.1V25h1.4v-9.5h4.7c2.9 0 4.3 1 4.9 3.4l.8 3.5c.3 1.4.7 1.9 1.2 2.5l.1.1h1.7l-.5-.5c-.6-.7-.9-1.4-1.2-2.3zm-11.7-8V5.1h4.7c3.8 0 5.6 1.5 5.6 4.6 0 3.7-3 4.5-5.6 4.5h-4.7zm16 10.8h1.4V15h8.8v-1.3h-8.8V5.1h9.9V3.8H96.5zM118 3.6c-5.7 0-9.1 4.1-9.1 10.8 0 6.8 3.4 10.8 9.1 10.8 5.7 0 9.1-4 9.1-10.8 0-6.8-3.4-10.8-9.1-10.8zm0 20.3c-4.9 0-7.7-3.5-7.7-9.5s2.8-9.5 7.7-9.5 7.7 3.5 7.7 9.5-2.8 9.5-7.7 9.5zm25-1.7l-.9-3.8c-.4-1.8-1.4-3-2.8-3.5 1.9-.6 3.6-2.2 3.6-5.2 0-3.9-2.3-5.9-6.9-5.9h-6.1V25h1.4v-9.5h4.7c2.9 0 4.3 1 4.9 3.4l.8 3.5c.3 1.4.7 1.9 1.2 2.5l.1.1h1.7l-.5-.5c-.6-.7-1-1.4-1.2-2.3zm-11.8-8V5.1h4.7c3.8 0 5.6 1.5 5.6 4.6 0 3.7-3 4.5-5.6 4.5h-4.7zm21.6-.8c-3.8-1-5.5-1.8-5.5-4.4 0-3.4 2.6-4.1 4.8-4.1 3.2 0 4.8 1.4 5.4 4.5l.1.3 1.3-.3v-.3c-.6-3.8-2.7-5.6-6.7-5.6-3.9 0-6.2 2-6.2 5.4 0 3.9 3.3 4.8 6.5 5.7 3.5.9 5.4 2 5.4 4.8 0 3.8-3.4 4.4-5.4 4.4-3.2 0-5.2-1.7-5.7-4.8l-.1-.3-1.3.4v.3c.6 3.7 3.2 5.8 7.1 5.8 4.3 0 6.8-2.1 6.8-5.7-.2-3.6-2.5-5-6.5-6.1zm-99.4 9.4c0 3.8-1.4 5.5-4.7 5.5-.3 0-.6 0-.8-.1v1.3h.8c4 0 6-2.2 6-6.6V3.8h-1.4v19z"/></svg>